<?xml version="1.0" encoding="utf-8"?>
<!-- Generator: Adobe Illustrator 21.1.0, SVG Export Plug-In . SVG Version: 6.00 Build 0)  -->
<svg version="1.1" id="Layer_1" xmlns="http://www.w3.org/2000/svg" xmlns:xlink="http://www.w3.org/1999/xlink" x="0px" y="0px"
	 viewBox="0 0 300 300" style="enable-background:new 0 0 300 300;" xml:space="preserve">
<style type="text/css">
	.st0{fill:#010101;}
	.st1{font-family:'Elementa-Bold';}
	.st2{font-size:57.5951px;}
	.st3{letter-spacing:1;}
	.st4{enable-background:new    ;}
	.st5{font-size:71.4871px;}
</style>
<text transform="matrix(1 0 0 1 1.9111 27.4365)" class="st0 st1 st2 st3">--------</text>
<g class="st4">
	<path class="st0" d="M21.3,96.4c-0.5,0.5-1.1,0.8-1.8,0.8c-0.6,0-1.2-0.3-1.8-0.8c-0.5-0.5-0.8-1.3-0.8-2.4V33c0-1,0.3-1.8,0.8-2.4
		c0.5-0.5,1.1-0.8,1.8-0.8c0.6,0,1.2,0.3,1.8,0.8c0.5,0.5,0.8,1.3,0.8,2.4v61.1C22.1,95.1,21.8,95.9,21.3,96.4z"/>
</g>
<g class="st4">
	<path class="st0" d="M21.3,182.2c-0.5,0.5-1.1,0.8-1.8,0.8c-0.6,0-1.2-0.3-1.8-0.8c-0.5-0.5-0.8-1.3-0.8-2.4v-61.1
		c0-1,0.3-1.8,0.8-2.4c0.5-0.5,1.1-0.8,1.8-0.8c0.6,0,1.2,0.3,1.8,0.8c0.5,0.5,0.8,1.3,0.8,2.4v61.1
		C22.1,180.9,21.8,181.7,21.3,182.2z"/>
</g>
<text transform="matrix(0.8057 0 0 1 76.811 170.8477)" class="st0 st1 st5"> </text>
<g class="st4">
	<path class="st0" d="M21.3,268c-0.5,0.5-1.1,0.8-1.8,0.8c-0.6,0-1.2-0.3-1.8-0.8c-0.5-0.5-0.8-1.3-0.8-2.4v-61.1
		c0-1,0.3-1.8,0.8-2.4c0.5-0.5,1.1-0.8,1.8-0.8c0.6,0,1.2,0.3,1.8,0.8c0.5,0.5,0.8,1.3,0.8,2.4v61.1C22.1,266.7,21.8,267.5,21.3,268
		z"/>
</g>
<text transform="matrix(1 0 0 1 1.9111 303.8926)" class="st0 st1 st2 st3">--------</text>
<g class="st4">
	<path class="st0" d="M280.5,96.4c-0.5,0.5-1.1,0.8-1.8,0.8c-0.6,0-1.2-0.3-1.8-0.8c-0.5-0.5-0.8-1.3-0.8-2.4V33
		c0-1,0.3-1.8,0.8-2.4c0.5-0.5,1.1-0.8,1.8-0.8c0.6,0,1.2,0.3,1.8,0.8c0.5,0.5,0.8,1.3,0.8,2.4v61.1C281.3,95.1,281,95.9,280.5,96.4
		z"/>
</g>
<g class="st4">
	<path class="st0" d="M280.5,182.2c-0.5,0.5-1.1,0.8-1.8,0.8c-0.6,0-1.2-0.3-1.8-0.8c-0.5-0.5-0.8-1.3-0.8-2.4v-61.1
		c0-1,0.3-1.8,0.8-2.4c0.5-0.5,1.1-0.8,1.8-0.8c0.6,0,1.2,0.3,1.8,0.8c0.5,0.5,0.8,1.3,0.8,2.4v61.1
		C281.3,180.9,281,181.7,280.5,182.2z"/>
</g>
<g class="st4">
	<path class="st0" d="M280.5,268c-0.5,0.5-1.1,0.8-1.8,0.8c-0.6,0-1.2-0.3-1.8-0.8c-0.5-0.5-0.8-1.3-0.8-2.4v-61.1
		c0-1,0.3-1.8,0.8-2.4c0.5-0.5,1.1-0.8,1.8-0.8c0.6,0,1.2,0.3,1.8,0.8c0.5,0.5,0.8,1.3,0.8,2.4v61.1
		C281.3,266.7,281,267.5,280.5,268z"/>
</g>
</svg>
