<svg xmlns="http://www.w3.org/2000/svg" viewBox="0 0 633.24 99.13"><title>Asset 5</title><g id="Layer_2" data-name="Layer 2"><g id="Layer_1-2" data-name="Layer 1"><path d="M3.81,73.42c0-2.68,0-5.35,0-8,0-.67.11-1.26.9-1.26s.94.62.94,1.26c0,5.43,0,10.86,0,16.29a1.49,1.49,0,0,1-.83,1.14c-.75.16-1-.45-1-1.14C3.82,78.93,3.81,76.18,3.81,73.42Z"/><path d="M3.77,49.45c0-2.67,0-5.35,0-8,0-.65,0-1.27.85-1.29s.94.61.95,1.24q0,8.2,0,16.4c0,.64-.22,1.23-.92,1.06a1.49,1.49,0,0,1-.84-1.12C3.73,55,3.77,52.2,3.77,49.45Z"/><path d="M5.49,25.54q0,4,0,8c0,.61.05,1.28-.82,1.31s-1-.62-.95-1.31q0-8.08,0-16.15c0-.65,0-1.28.86-1.27s.91.61.91,1.27Q5.48,21.47,5.49,25.54Z"/><path d="M147.77,97c1.16,0,2.32-.07,3.47,0,.38,0,.72.54,1.08.83-.34.32-.66.91-1,.92q-3.53.12-7.06,0c-.35,0-.68-.59-1-.9.36-.3.69-.81,1.07-.85C145.45,96.92,146.61,97,147.77,97Z"/><path d="M290.6.75c1.16,0,2.32-.07,3.47,0,.38,0,.7.56,1.05.86-.35.31-.68.88-1,.89q-3.53.12-7.06,0c-.34,0-.66-.61-1-.93.37-.29.71-.78,1.1-.82C288.27.68,289.44.75,290.6.75Z"/><path d="M160.77,97a30.28,30.28,0,0,1,3.35,0c.41,0,.77.57,1.16.87-.39.31-.77.87-1.17.88-2.27.09-4.55.08-6.83,0-.37,0-.73-.54-1.09-.83.37-.32.72-.87,1.12-.92A32,32,0,0,1,160.77,97Z"/><path d="M147.64,1a28.74,28.74,0,0,1,3.23,0c.43,0,.81.54,1.21.82-.37.32-.74.91-1.12.93-2.31.09-4.63.08-6.94,0-.35,0-.68-.58-1-.9.35-.3.69-.82,1.06-.85C145.24.92,146.44,1,147.64,1Z"/><path d="M56.56,3.06a30.05,30.05,0,0,1-3.35,0c-.42,0-.79-.56-1.18-.87.38-.31.75-.87,1.15-.89,2.27-.09,4.55-.08,6.83,0,.38,0,.75.52,1.12.79-.36.34-.7.91-1.09,1A31,31,0,0,1,56.56,3.06Z"/><path d="M381.6.51a29.78,29.78,0,0,1,3.35,0c.41,0,.76.58,1.13.9-.36.3-.71.84-1.08.86q-3.47.12-6.94,0c-.37,0-.71-.56-1.07-.86.38-.31.73-.85,1.14-.9A32.52,32.52,0,0,1,381.6.51Z"/><path d="M615.65,0a32.83,32.83,0,0,1,3.35,0c.38,0,.72.54,1.07.84-.34.32-.67.9-1,.91q-3.53.12-7.06,0c-.35,0-.67-.59-1-.91.36-.29.7-.8,1.08-.84C613.25,0,614.46,0,615.65,0Z"/><path d="M381.76,98.34a30.12,30.12,0,0,1-3.35,0c-.42,0-.79-.56-1.18-.86.38-.31.75-.88,1.14-.89,2.27-.09,4.55-.09,6.82,0,.38,0,.75.59,1.12.9-.36.3-.7.81-1.09.85C384.08,98.41,382.92,98.34,381.76,98.34Z"/><path d="M394.73,98.34a30.24,30.24,0,0,1-3.35,0c-.42,0-.8-.56-1.19-.86.38-.31.75-.88,1.14-.9,2.27-.09,4.55-.09,6.82,0,.39,0,.75.58,1.13.9-.36.3-.7.82-1.08.85C397.05,98.41,395.89,98.34,394.73,98.34Z"/><path d="M628.67,97.86h-3.23c-.68,0-1.32-.2-1.19-.95a1.5,1.5,0,0,1,1.14-.85c2.23-.08,4.47-.08,6.71,0a1.49,1.49,0,0,1,1.13.85c.12.75-.53,1-1.2,1Z"/><path d="M368.75,96.59c1.16,0,2.32-.07,3.47,0,.39,0,.73.53,1.09.81-.38.32-.74.89-1.13.9-2.27.09-4.55.09-6.82,0-.39,0-.75-.57-1.13-.88.39-.29.76-.79,1.17-.84A31.42,31.42,0,0,1,368.75,96.59Z"/><path d="M134.66,98.86a33.35,33.35,0,0,1-3.35,0,1.43,1.43,0,0,1-1-.82c-.15-.7.41-.93,1.06-.93,2.31,0,4.63,0,6.94,0,.36,0,.69.56,1,.86-.35.3-.69.82-1.07.85C137.05,98.93,135.85,98.86,134.66,98.86Z"/><path d="M121.57,1.07c1.16,0,2.32-.07,3.47,0,.38,0,.72.54,1.07.83-.34.31-.68.87-1,.89q-3.53.12-7.06,0c-.34,0-.66-.58-1-.89.36-.29.69-.78,1.07-.82C119.25,1,120.41,1.07,121.57,1.07Z"/><path d="M511.74,98.1h-3.23c-.65,0-1.26-.09-1.28-.9s.55-.95,1.22-.95c2.23,0,4.47,0,6.69,0,.38,0,.74.58,1.12.89-.35.3-.69.82-1.06.86-1.14.11-2.31,0-3.46,0Z"/><path d="M173.53,2.82a29.65,29.65,0,0,1-3.34,0c-.41,0-.76-.58-1.13-.89.39-.3.76-.84,1.16-.86,2.27-.08,4.54-.08,6.81,0,.37,0,.72.53,1.07.82-.37.33-.71.89-1.11.93A31.38,31.38,0,0,1,173.53,2.82Z"/><path d="M4.51,3.1a30.17,30.17,0,0,1-3.34,0C.75,3,.39,2.5,0,2.19c.39-.3.78-.83,1.19-.85,2.27-.08,4.54-.08,6.81,0,.37,0,.72.52,1.07.8-.37.32-.71.87-1.1.91A32.34,32.34,0,0,1,4.51,3.1Z"/><path d="M277.79,96.75c1.08,0,2.15,0,3.23,0,.67,0,1.32.15,1.19.92a1.49,1.49,0,0,1-1.11.88c-2.27.08-4.54.08-6.81,0-.37,0-.71-.55-1.07-.84.37-.32.71-.87,1.11-.91A32.24,32.24,0,0,1,277.79,96.75Z"/><path d="M498.89,96.27a33.23,33.23,0,0,1,3.34,0c.38,0,.72.53,1.07.82-.33.32-.65.91-1,.93q-3.52.12-7.05,0c-.35,0-.67-.58-1-.9.35-.3.68-.82,1-.85C496.49,96.2,497.69,96.27,498.89,96.27Z"/><path d="M82.57,1.19c1.16,0,2.32-.07,3.46,0,.37,0,.69.55,1,.84-.34.3-.67.86-1,.87q-3.52.12-7.05,0c-.35,0-.67-.59-1-.91.37-.28.72-.76,1.12-.8C80.25,1.12,81.42,1.19,82.57,1.19Z"/><path d="M264.73,98.58a29.69,29.69,0,0,1-3.34,0c-.41,0-.75-.58-1.13-.9.39-.3.77-.84,1.17-.85,2.23-.08,4.46-.08,6.69,0a1.48,1.48,0,0,1,1.13.84c.14.75-.5,1-1.17,1Z"/><path d="M485.8,98.14a32.09,32.09,0,0,1-3.46,0c-.4,0-.76-.58-1.13-.9.36-.28.72-.8,1.09-.82q3.46-.11,6.93,0c.36,0,.7.54,1,.83-.34.31-.65.85-1,.88C488.12,98.21,487,98.14,485.8,98.14Z"/><path d="M251.77,96.83c1.16,0,2.32-.07,3.46,0,.37,0,.69.54,1,.84-.34.31-.67.86-1,.88q-3.52.12-7.05,0c-.34,0-.67-.59-1-.9.33-.28.63-.78,1-.81C249.37,96.77,250.57,96.83,251.77,96.83Z"/><path d="M602.51,1.9c-1.16,0-2.32.07-3.47,0-.38,0-.71-.54-1.06-.84.34-.31.66-.86,1-.87q3.53-.12,7.06,0c.35,0,.68.58,1,.88-.36.29-.71.79-1.09.83C604.83,2,603.67,1.9,602.51,1.9Z"/><path d="M589.55,1.9c-1.16,0-2.32.07-3.47,0-.38,0-.71-.54-1.06-.84.34-.31.66-.86,1-.87q3.53-.12,7.06,0c.35,0,.68.58,1,.88-.36.29-.71.79-1.09.83C591.87,2,590.71,1.9,589.55,1.9Z"/><path d="M602.81,96.11a30.55,30.55,0,0,1,3.35,0c.41,0,.77.56,1.15.87-.4.3-.78.83-1.19.85-2.23.08-4.47.08-6.7,0a1.49,1.49,0,0,1-1.14-.83c-.16-.79.52-.93,1.18-.93Z"/><path d="M355.54,2.38c-1.16,0-2.32.07-3.47,0-.37,0-.7-.55-1-.85.34-.3.67-.85,1-.86,2.35-.08,4.71-.07,7.06,0,.34,0,.67.51,1,.78-.33.32-.63.89-1,.93C357.94,2.45,356.73,2.38,355.54,2.38Z"/><path d="M43.83,97.23c1.12,0,2.24-.07,3.34,0,.39,0,.73.52,1.09.8-.36.33-.71.94-1.09,1-2.31.09-4.62.08-6.93,0-.35,0-.69-.57-1-.88.34-.31.66-.84,1-.87C41.43,97.16,42.63,97.23,43.83,97.23Z"/><path d="M407.62.51c1.08,0,2.15,0,3.23,0,.67,0,1.32.15,1.2.91a1.48,1.48,0,0,1-1.11.89c-2.27.09-4.54.08-6.81,0-.37,0-.71-.54-1.07-.84.37-.32.71-.87,1.1-.92A32.17,32.17,0,0,1,407.62.51Z"/><path d="M550.59.23c1.16,0,2.32-.07,3.46,0,.36,0,.68.56,1,.86-.31.29-.61.83-.92.84-2.39.08-4.78.08-7.17,0-.34,0-.65-.61-1-.93.34-.27.65-.75,1-.78C548.2.17,549.4.23,550.59.23Z"/><path d="M17.77,97.31c1.16,0,2.32-.07,3.46,0,.37,0,.69.55,1,.84-.34.3-.67.86-1,.87q-3.52.12-7.05,0c-.34,0-.66-.59-1-.91.33-.28.64-.77,1-.8C15.38,97.25,16.58,97.31,17.77,97.31Z"/><path d="M498.61.27c1.12,0,2.24-.07,3.34,0,.39,0,.74.51,1.11.79-.36.34-.7,1-1.07,1-2.31.09-4.62.08-6.93,0-.36,0-.7-.56-1-.86.38-.31.73-.85,1.13-.89A32.7,32.7,0,0,1,498.61.27Z"/><path d="M238.47,2.62a29.27,29.27,0,0,1-3.34,0c-.4,0-.75-.59-1.12-.9.37-.28.72-.8,1.1-.81q3.46-.11,6.93,0c.35,0,.69.54,1,.84-.34.31-.65.84-1,.88C240.87,2.69,239.67,2.62,238.47,2.62Z"/><path d="M472.52,2.14a30.36,30.36,0,0,1-3.34,0c-.42,0-.78-.56-1.17-.86.39-.3.78-.84,1.18-.86,2.27-.08,4.54-.08,6.81,0,.37,0,.72.52,1.08.79-.36.32-.7.88-1.09.92A32.16,32.16,0,0,1,472.52,2.14Z"/><path d="M264.56,2.58a30.94,30.94,0,0,1-3.46,0c-.39,0-.73-.61-1.09-.94.36-.28.72-.8,1.09-.81q3.46-.11,6.93,0c.35,0,.68.56,1,.87-.34.31-.67.85-1,.88C266.88,2.65,265.72,2.58,264.56,2.58Z"/><path d="M316.49,2.5c-1.08,0-2.15,0-3.23,0-.68,0-1.31-.2-1.2-.94.05-.34.74-.81,1.15-.83,2.23-.08,4.46,0,6.7,0,.63,0,1.14.13,1.17.86s-.49.93-1.11.93Z"/><path d="M485.57.35c1.12,0,2.23,0,3.35,0,.62,0,1.25.15,1.12.86a1.46,1.46,0,0,1-1.06.9c-2.27.09-4.54.08-6.81,0-.38,0-.75-.57-1.12-.88.39-.29.76-.79,1.18-.83A31.47,31.47,0,0,1,485.57.35Z"/><path d="M550.72,96.23c1.16,0,2.32-.07,3.47,0,.39,0,.73.52,1.09.8-.33.32-.66.89-1,.91q-3.53.12-7.06,0c-.35,0-.69-.57-1-.88.36-.29.69-.8,1.07-.84C548.4,96.15,549.57,96.23,550.72,96.23Z"/><path d="M537.77,96.23c1.16,0,2.32-.07,3.46,0,.37,0,.69.56,1,.87-.32.29-.63.83-1,.84q-3.58.11-7.17,0c-.32,0-.63-.53-.95-.82.33-.31.64-.85,1-.88C535.37,96.16,536.58,96.23,537.77,96.23Z"/><path d="M524.81,98h-3.35c-.66,0-1.33-.15-1.18-.94a1.49,1.49,0,0,1,1.14-.82c2.23-.08,4.47-.08,6.7,0,.41,0,.79.54,1.19.83-.38.31-.74.84-1.16.89A30.12,30.12,0,0,1,524.81,98Z"/><path d="M69.84,97.19c1.16,0,2.32-.07,3.47,0,.36,0,.68.57,1,.88-.32.29-.63.82-1,.83q-3.59.11-7.18,0c-.33,0-.64-.54-1-.83.34-.31.66-.84,1-.88C67.44,97.12,68.64,97.19,69.84,97.19Z"/><path d="M524.57.23c1.16,0,2.32-.07,3.47,0,.38,0,.72.53,1.08.81-.34.31-.66.89-1,.9q-3.53.12-7.06,0c-.35,0-.68-.57-1-.88.36-.29.7-.79,1.08-.83C522.25.15,523.41.23,524.57.23Z"/><path d="M472.73,96.35a32.08,32.08,0,0,1,3.35,0c.42,0,.8.53,1.2.82-.38.31-.74.89-1.13.9-2.27.09-4.55.09-6.82,0-.39,0-.76-.58-1.14-.89.4-.29.78-.78,1.2-.83A31.71,31.71,0,0,1,472.73,96.35Z"/><path d="M537.47,2h-3.23c-.67,0-1.33-.17-1.19-.93a1.5,1.5,0,0,1,1.15-.83c2.23-.08,4.47-.08,6.7,0,.4,0,.79.54,1.19.82-.38.31-.74.85-1.15.89A32.9,32.9,0,0,1,537.47,2Z"/><path d="M238.84,96.83c1.12,0,2.24-.07,3.35,0,.38,0,.73.52,1.09.8-.37.32-.74.89-1.12.91-2.27.09-4.55.09-6.82,0-.39,0-.77-.57-1.15-.88.4-.29.77-.79,1.19-.83A34.15,34.15,0,0,1,238.84,96.83Z"/><path d="M355.65,98.38c-1.12,0-2.23,0-3.35,0-.67,0-1.19-.28-1-.95a1.39,1.39,0,0,1,1-.82q3.46-.11,6.93,0c.35,0,.69.55,1,.85-.34.3-.66.83-1,.86C358,98.45,356.84,98.38,355.65,98.38Z"/><path d="M589.63,97.9c-1.12,0-2.24.07-3.34,0a1.42,1.42,0,0,1-1-.82c-.14-.68.4-.94,1.06-.94,2.31,0,4.62,0,6.93,0,.35,0,.68.56,1,.87-.35.3-.68.81-1,.85C592,98,590.83,97.9,589.63,97.9Z"/><path d="M82.72,99a30.74,30.74,0,0,1-3.35,0c-.42,0-.8-.55-1.19-.84.38-.3.76-.86,1.15-.87,2.27-.08,4.55-.08,6.82,0,.38,0,.75.58,1.12.88-.36.29-.7.79-1.09.83C85,99.05,83.88,99,82.72,99Z"/><path d="M303.45,2.5a29.08,29.08,0,0,1-3.35,0c-.4,0-.75-.59-1.13-.91.37-.28.73-.79,1.1-.81q3.47-.11,6.94,0c.36,0,.7.54,1.05.84-.34.31-.67.84-1,.87C305.85,2.57,304.65,2.5,303.45,2.5Z"/><path d="M251.56,2.62c-1.16,0-2.32.07-3.46,0-.38,0-.7-.54-1.05-.83.34-.31.67-.87,1-.88q3.52-.12,7.05,0c.34,0,.66.58,1,.89-.36.29-.69.79-1.08.82C253.88,2.69,252.72,2.62,251.56,2.62Z"/><path d="M134.6,1.07c1.16,0,2.32-.07,3.47,0,.38,0,.7.54,1.06.83-.34.31-.68.87-1,.88q-3.53.12-7.06,0c-.34,0-.66-.59-1-.91.33-.28.63-.77,1-.8,1.19-.1,2.39,0,3.59,0Z"/><path d="M121.69,98.86a30.69,30.69,0,0,1-3.34,0c-.41,0-.76-.56-1.14-.87.35-.3.69-.84,1-.85,2.35-.08,4.7-.07,7.05,0,.33,0,.64.52,1,.81-.33.32-.63.87-1,.9-1.18.11-2.39,0-3.58,0Z"/><path d="M316.79,96.71c1.16,0,2.32-.07,3.47,0,.37,0,.68.56,1,.87-.32.29-.62.83-.95.84q-3.59.11-7.18,0c-.33,0-.64-.53-1-.82.34-.31.65-.85,1-.89C314.39,96.64,315.59,96.71,316.79,96.71Z"/><path d="M199.68.95c1.12,0,2.24-.07,3.35,0,.39,0,.73.53,1.09.81-.34.31-.67.88-1,.9q-3.52.12-7.05,0c-.34,0-.67-.58-1-.89.35-.29.69-.79,1.07-.82C197.28.88,198.48.95,199.68.95Z"/><path d="M303.89,96.71c1.12,0,2.24-.07,3.35,0,.38,0,.72.53,1.09.81-.34.31-.66.89-1,.9q-3.53.12-7.06,0c-.35,0-.69-.57-1-.88.36-.29.7-.8,1.08-.83C301.49,96.64,302.69,96.71,303.89,96.71Z"/><path d="M4.62,99.1a32.82,32.82,0,0,1-3.35,0c-.39,0-.73-.54-1.09-.83.34-.31.67-.87,1-.88q3.53-.12,7.06,0c.35,0,.68.57,1,.87-.36.29-.69.81-1.07.84C7,99.17,5.81,99.1,4.62,99.1Z"/><path d="M17.57,3.1c-1.16,0-2.32.07-3.46,0-.38,0-.71-.54-1.06-.83.34-.31.66-.87,1-.88q3.52-.12,7.05,0c.34,0,.67.58,1,.88-.35.29-.69.79-1.07.83C19.89,3.17,18.73,3.1,17.57,3.1Z"/><path d="M30.57,1.31c1.16,0,2.32-.07,3.46,0,.37,0,.69.56,1,.85-.34.3-.68.85-1,.86-2.35.08-4.7.07-7.05,0-.33,0-.65-.52-1-.8.33-.32.63-.88,1-.91C28.17,1.24,29.37,1.31,30.57,1.31Z"/><path d="M433.56,2.26a31.42,31.42,0,0,1-3.34,0c-.42,0-.79-.54-1.18-.84.37-.31.74-.86,1.12-.88,2.27-.08,4.55-.08,6.82,0,.39,0,.76.57,1.14.87-.36.29-.7.8-1.09.84-1.15.11-2.31,0-3.46,0Z"/><path d="M69.6,1.19c1.16,0,2.32-.07,3.47,0,.36,0,.67.57,1,.88-.32.29-.63.82-1,.83q-3.59.11-7.18,0c-.33,0-.64-.54-1-.83.34-.31.66-.84,1-.88C67.2,1.12,68.4,1.19,69.6,1.19Z"/><path d="M30.81,97.31c1.16,0,2.32-.07,3.46,0,.37,0,.69.56,1,.86-.34.3-.68.85-1,.86-2.35.08-4.7.07-7.05,0-.33,0-.65-.52-1-.8.33-.32.63-.88,1-.91C28.41,97.24,29.61,97.31,30.81,97.31Z"/><path d="M368.57,2.38c-1.16,0-2.32.07-3.47,0-.38,0-.72-.54-1.08-.84.34-.31.67-.86,1-.88q3.53-.12,7.06,0c.35,0,.67.57,1,.88-.36.29-.7.8-1.08.84C370.89,2.45,369.73,2.38,368.57,2.38Z"/><path d="M290.82,96.75a29.8,29.8,0,0,1,3.35,0c.41,0,.76.58,1.14.89-.36.3-.71.85-1.08.86q-3.47.12-6.94,0c-.36,0-.71-.55-1.06-.85.37-.31.72-.86,1.12-.9A32.6,32.6,0,0,1,290.82,96.75Z"/><path d="M173.79,98.82a31.13,31.13,0,0,1-3.47,0c-.4,0-.75-.6-1.12-.93.36-.29.72-.81,1.09-.83q3.47-.12,6.94,0c.36,0,.69.56,1,.85-.34.31-.65.86-1,.9A34.46,34.46,0,0,1,173.79,98.82Z"/><path d="M407.8,96.51c1.08,0,2.15,0,3.23,0,.66,0,1.33.13,1.19.92a1.49,1.49,0,0,1-1.11.88c-2.27.08-4.55.08-6.82,0-.37,0-.72-.55-1.09-.84.37-.32.72-.87,1.13-.91A32.11,32.11,0,0,1,407.8,96.51Z"/><path d="M56.85,97.23c1.12,0,2.24-.07,3.35,0,.39,0,.74.52,1.11.81-.37.33-.73.93-1.11.94-2.31.09-4.63.08-6.94,0-.35,0-.69-.57-1-.88.34-.3.66-.83,1-.87C54.45,97.16,55.66,97.23,56.85,97.23Z"/><path d="M394.61.51a29.93,29.93,0,0,1,3.35,0c.4,0,.75.58,1.12.9-.35.3-.7.84-1.06.86q-3.47.12-6.94,0c-.37,0-.71-.56-1.07-.86.38-.31.73-.85,1.14-.9A32.35,32.35,0,0,1,394.61.51Z"/><path d="M277.6.75a30.22,30.22,0,0,1,3.35,0c.41,0,.77.57,1.16.87-.39.31-.77.87-1.18.88-2.27.09-4.55.08-6.82,0-.37,0-.72-.54-1.08-.83.37-.32.71-.88,1.1-.92A32.18,32.18,0,0,1,277.6.75Z"/><path d="M615.69,97.86a29.86,29.86,0,0,1-3.35,0c-.41,0-.77-.57-1.15-.88.38-.31.75-.86,1.15-.87,2.27-.08,4.55-.08,6.82,0,.38,0,.74.52,1.11.8-.37.33-.71.9-1.11.95A31.26,31.26,0,0,1,615.69,97.86Z"/><path d="M511.61.27c1.08,0,2.16,0,3.23,0,.69,0,1.32.18,1.21.92a1.49,1.49,0,0,1-1.12.88c-2.27.09-4.55.08-6.82,0-.37,0-.72-.55-1.07-.84.37-.32.71-.87,1.11-.91A32.36,32.36,0,0,1,511.61.27Z"/><path d="M43.64,1.23c1.12,0,2.24-.07,3.35,0,.4,0,.75.51,1.13.79-.36.34-.72.95-1.09,1-2.31.09-4.63.08-6.94,0-.36,0-.7-.56-1-.86.38-.31.73-.84,1.14-.89A32.89,32.89,0,0,1,43.64,1.23Z"/><path d="M160.46,2.82a28.38,28.38,0,0,1-3.35,0c-.4,0-.74-.61-1.11-.93.37-.29.73-.81,1.1-.82Q160.57.91,164,1c.35,0,.69.56,1,.86-.34.31-.66.86-1,.89C162.86,2.89,161.66,2.82,160.46,2.82Z"/><path d="M628.6,0a30.12,30.12,0,0,1,3.35,0c.4,0,.75.58,1.13.89-.35.3-.69.85-1.06.86q-3.47.12-6.94,0c-.37,0-.72-.55-1.08-.85.38-.32.73-.86,1.13-.91A32.17,32.17,0,0,1,628.6,0Z"/><path d="M420.58,2.26h-3.35c-.67,0-1.32-.18-1.18-.94A1.49,1.49,0,0,1,417.2.5c2.23-.08,4.46,0,6.69,0,.64,0,1.24.17,1.11.86a1.51,1.51,0,0,1-1.08.9A30,30,0,0,1,420.58,2.26Z"/><path d="M420.84,96.47c1.16,0,2.32-.06,3.46,0,.35,0,.66.49,1,.76-.31.33-.62.94-.94.95-2.39.08-4.78.08-7.17,0-.32,0-.63-.54-.94-.84.34-.3.65-.84,1-.87C418.44,96.4,419.64,96.47,420.84,96.47Z"/><path d="M433.75,96.47c1.16,0,2.32-.07,3.46,0,.37,0,.7.53,1.05.82-.34.31-.67.88-1,.89q-3.52.12-7.05,0c-.34,0-.67-.59-1-.9.36-.28.7-.77,1.08-.81C431.43,96.4,432.59,96.47,433.75,96.47Z"/><path d="M186.68,98.74h-3.35c-.66,0-1.19-.29-1-1a1.4,1.4,0,0,1,1-.8q3.46-.11,6.93,0c.35,0,.69.55,1,.84-.34.3-.67.83-1,.87-1.18.11-2.39,0-3.58,0Z"/><path d="M186.44,2.74h-3.35c-.66,0-1.19-.29-1-1a1.4,1.4,0,0,1,1-.8Q186.57.87,190,1c.35,0,.69.55,1,.84-.34.3-.67.83-1,.87-1.18.11-2.39,0-3.58,0Z"/><path d="M199.78,96.95c1.16,0,2.32-.07,3.46,0,.36,0,.68.56,1,.85-.31.3-.61.84-.93.85q-3.58.11-7.17,0c-.33,0-.64-.53-1-.82.33-.31.64-.85,1-.89C197.38,96.88,198.59,96.95,199.78,96.95Z"/><path d="M459.55.43c1.16,0,2.32-.07,3.46,0,.38,0,.71.53,1.06.81-.34.3-.68.85-1,.86q-3.52.12-7.05,0c-.35,0-.67-.58-1-.88.37-.28.71-.76,1.1-.79C457.23.36,458.4.43,459.55.43Z"/><path d="M212.62.91c1.12,0,2.23,0,3.35,0,.64,0,1.24.18,1.09.88a1.49,1.49,0,0,1-1.13.85c-2.27.08-4.54.08-6.81,0a1.39,1.39,0,0,1-1-.81c-.13-.68.43-.92,1.08-.91C210.31.92,211.47.91,212.62.91Z"/><path d="M225.61.91c1.16,0,2.32-.06,3.46,0,.35,0,.66.49,1,.76-.32.32-.64.91-1,.92-2.39.08-4.78.08-7.17,0-.32,0-.63-.54-.95-.83.35-.3.68-.81,1-.84C223.22.84,224.42.91,225.61.91Z"/><path d="M225.89,96.91c1.08,0,2.15,0,3.23,0,.62,0,1.17.09,1.19.84s-.47.93-1.11.93c-2.27,0-4.54,0-6.82,0-.65,0-1.23-.23-1.09-.9a1.53,1.53,0,0,1,1.14-.83C223.57,96.83,224.73,96.91,225.89,96.91Z"/><path d="M459.77,96.43c1.16,0,2.32-.07,3.46,0,.38,0,.72.52,1.08.79-.34.31-.67.87-1,.88q-3.52.12-7.05,0c-.35,0-.68-.57-1-.87.36-.28.7-.77,1.08-.81C457.46,96.36,458.62,96.43,459.77,96.43Z"/><path d="M446.74.43c1.08,0,2.15,0,3.23,0,.64,0,1.24.19,1.09.88a1.49,1.49,0,0,1-1.13.85c-2.27.08-4.54.08-6.81,0a1.39,1.39,0,0,1-1-.81c-.13-.68.43-.92,1.08-.91C444.35.44,445.55.43,446.74.43Z"/><path d="M212.81,96.91c1.12,0,2.23,0,3.35,0,.66,0,1.21.22,1.1.89a1.38,1.38,0,0,1-1,.83q-3.46.12-6.93,0a1.37,1.37,0,0,1-1-.82c-.15-.7.42-.91,1.07-.9C210.5,96.92,211.65,96.91,212.81,96.91Z"/><path d="M563.53,1.94c-1.15,0-2.32.07-3.46,0-.39,0-.74-.52-1.11-.79.38-.31.74-.87,1.13-.88,2.31-.08,4.62-.08,6.93,0,.35,0,.68.55,1,.84-.35.29-.67.8-1,.84C565.85,2,564.69,1.94,563.53,1.94Z"/><path d="M329.83,96.67c1.15,0,2.31-.06,3.46,0,.34,0,.65.49,1,.76-.32.32-.63.9-1,.91-2.39.08-4.78.08-7.16,0-.33,0-.64-.54-1-.83.35-.3.68-.81,1.06-.85C327.44,96.6,328.64,96.67,329.83,96.67Z"/><path d="M95.72,98.9c-1.15,0-2.32.07-3.46,0-.38,0-.71-.55-1.06-.84.36-.29.7-.82,1.07-.83,2.35-.08,4.7-.07,7,0,.33,0,.64.5,1,.78-.32.31-.62.87-1,.9C98.11,99,96.91,98.9,95.72,98.9Z"/><path d="M446.69,96.43c1.16,0,2.31,0,3.46,0,.66,0,1.21.22,1.1.89a1.38,1.38,0,0,1-1,.83q-3.46.12-6.93,0a1.37,1.37,0,0,1-1-.82c-.15-.7.42-.91,1.07-.9C444.46,96.44,445.58,96.43,446.69,96.43Z"/><path d="M563.77,97.94c-1.15,0-2.32.07-3.46,0-.39,0-.74-.52-1.11-.79.37-.31.74-.87,1.13-.89,2.31-.08,4.62-.08,6.93,0,.35,0,.68.54,1,.84-.35.29-.67.8-1,.84C566.09,98,564.93,97.94,563.77,97.94Z"/><path d="M576.89,96.19a32.78,32.78,0,0,1,3.34,0c.36,0,.67.56,1,.85-.31.29-.62.81-.94.82q-3.58.11-7.17,0c-.33,0-.65-.53-1-.81.34-.3.66-.83,1-.86C574.41,96.12,575.66,96.19,576.89,96.19Z"/><path d="M108.84,97.15c1.15,0,2.32-.07,3.46,0,.36,0,.67.56,1,.86-.32.28-.62.8-.95.81q-3.58.11-7.17,0c-.32,0-.63-.53-.94-.81.34-.3.65-.83,1-.86C106.44,97.08,107.64,97.15,108.84,97.15Z"/><path d="M576.46,1.94c-1.15,0-2.32.07-3.46,0-.36,0-.67-.57-1-.88.32-.28.63-.79,1-.8q3.58-.1,7.17,0c.32,0,.62.53.93.81-.3.3-.58.83-.9.86-1.23.1-2.47,0-3.7,0Z"/><path d="M329.66.67c1.15,0,2.31-.06,3.46,0,.34,0,.65.5,1,.77-.32.32-.63.9-1,.91-2.39.08-4.78.07-7.17,0-.32,0-.62-.54-.93-.83.3-.29.59-.81.92-.84C327.18.61,328.42.67,329.66.67Z"/><path d="M342.62.67c1.15,0,2.32-.06,3.46,0,.34,0,.65.5,1,.77-.32.32-.63.89-1,.9-2.39.08-4.78.07-7.17,0-.32,0-.62-.54-.92-.83.3-.29.59-.81.92-.84C340.15.61,341.38.67,342.62.67Z"/><path d="M342.77,98.42c-1.12,0-2.23,0-3.35,0-.63,0-1.15-.12-1.17-.86s.46-.92,1.11-.91q3.4,0,6.81,0c.66,0,1.22.21,1.07.89a1.54,1.54,0,0,1-1.13.83A32.07,32.07,0,0,1,342.77,98.42Z"/><path d="M95.52,2.9c-1.12,0-2.23,0-3.35,0-.65,0-1.21-.21-1.08-.9a1.36,1.36,0,0,1,1-.82q3.46-.11,6.93,0A1.36,1.36,0,0,1,100,2c.14.69-.41.92-1.06.92C97.83,2.89,96.67,2.9,95.52,2.9Z"/><path d="M108.55,1.15c1.15,0,2.32-.07,3.46,0,.37,0,.7.53,1.05.82-.34.3-.67.85-1,.86q-3.52.12-7,0c-.34,0-.66-.57-1-.88.36-.28.7-.76,1.08-.8C106.23,1.08,107.39,1.15,108.55,1.15Z"/></g></g></svg>