<svg xmlns="http://www.w3.org/2000/svg" viewBox="0 0 121.03 68.37"><title>preview-glasses</title><g id="Layer_2" data-name="Layer 2"><g id="Layer_1-2" data-name="Layer 1"><path d="M1.69,18.43a.79.79,0,0,1-.54.47,1,1,0,0,1-1.09-.55.8.8,0,0,1,0-.72L8.89.49A.83.83,0,0,1,9.44,0a.91.91,0,0,1,.64.07.93.93,0,0,1,.43.47.83.83,0,0,1-.06.72Z"/><path d="M23.44,18.33a1,1,0,0,1-.44.47,1,1,0,0,1-.64.09.76.76,0,0,1-.55-.46L13,1.29A.78.78,0,0,1,13,.59a.92.92,0,0,1,.44-.47A1,1,0,0,1,14.06,0a.8.8,0,0,1,.55.45l8.78,17.14A.75.75,0,0,1,23.44,18.33Z"/><path d="M79.71,18.43a.79.79,0,0,1-.54.47,1,1,0,0,1-1.09-.55.8.8,0,0,1,0-.72L86.91.49A.83.83,0,0,1,87.46,0,.91.91,0,0,1,88.1.1a.93.93,0,0,1,.43.47.83.83,0,0,1-.06.72Z"/><path d="M101.46,18.33a1,1,0,0,1-.44.47,1,1,0,0,1-.64.09.76.76,0,0,1-.55-.46L91.05,1.29A.78.78,0,0,1,91,.59a.92.92,0,0,1,.44-.47A1,1,0,0,1,92.08,0a.8.8,0,0,1,.55.45l8.78,17.14A.75.75,0,0,1,101.46,18.33Z"/><path d="M36.42,42.33a1,1,0,0,1-.44.47,1,1,0,0,1-.64.09.76.76,0,0,1-.55-.46L26,25.29a.78.78,0,0,1-.06-.7.92.92,0,0,1,.44-.47A1,1,0,0,1,27,24a.8.8,0,0,1,.55.45l8.78,17.14A.75.75,0,0,1,36.42,42.33Z"/><path d="M38.75,44.37a.81.81,0,0,1-.68-.28,1,1,0,0,1,0-1.22.81.81,0,0,1,.68-.28H51a.79.79,0,0,1,.66.28,1,1,0,0,1,0,1.22.79.79,0,0,1-.66.28Z"/><path d="M53.67,44.37a.81.81,0,0,1-.68-.28,1,1,0,0,1,0-1.22.81.81,0,0,1,.68-.28h12.2a.79.79,0,0,1,.66.28,1,1,0,0,1,0,1.22.79.79,0,0,1-.66.28Z"/><path d="M68.59,44.37a.81.81,0,0,1-.68-.28,1,1,0,0,1,0-1.22.81.81,0,0,1,.68-.28h12.2a.79.79,0,0,1,.66.28,1,1,0,0,1,0,1.22.79.79,0,0,1-.66.28Z"/><path d="M83.51,44.37a.81.81,0,0,1-.68-.28,1,1,0,0,1,0-1.22.81.81,0,0,1,.68-.28h12.2a.79.79,0,0,1,.66.28,1,1,0,0,1,0,1.22.79.79,0,0,1-.66.28Z"/><path d="M98.43,44.37a.81.81,0,0,1-.68-.28,1,1,0,0,1,0-1.22.81.81,0,0,1,.68-.28h12.2a.79.79,0,0,1,.66.28,1,1,0,0,1,0,1.22.79.79,0,0,1-.66.28Z"/><path d="M118.94,42.33a1,1,0,0,1-.44.47,1,1,0,0,1-.64.09.76.76,0,0,1-.55-.46l-8.78-17.14a.78.78,0,0,1-.06-.7.92.92,0,0,1,.44-.47,1,1,0,0,1,.65-.08.8.8,0,0,1,.55.45l8.78,17.14A.75.75,0,0,1,118.94,42.33Z"/><path d="M47,64.91a.78.78,0,0,1,.39.59,1,1,0,0,1-.15.63,1,1,0,0,1-.52.39.79.79,0,0,1-.7-.13,11.56,11.56,0,0,1-2.3-2,11.93,11.93,0,0,1-1.63-2.3A10.85,10.85,0,0,1,40.77,57,10.66,10.66,0,0,1,42,52a10.47,10.47,0,0,1,3.62-3.91.79.79,0,0,1,.7-.13A.93.93,0,0,1,47,49a.81.81,0,0,1-.42.59,8.84,8.84,0,0,0-3,3.3,8.4,8.4,0,0,0-.74,2A9.43,9.43,0,0,0,42.55,57a9,9,0,0,0,1.12,4.34,10,10,0,0,0,1.39,1.93A10.56,10.56,0,0,0,47,64.91Z"/><path d="M50.53,68.37a.81.81,0,0,1-.68-.28,1,1,0,0,1,0-1.22.81.81,0,0,1,.68-.28h12.2a.79.79,0,0,1,.66.28,1,1,0,0,1,0,1.22.79.79,0,0,1-.66.28Z"/><path d="M72.53,57a10.78,10.78,0,0,1-1.32,5.15,12.14,12.14,0,0,1-1.64,2.3,11.58,11.58,0,0,1-2.3,2,.79.79,0,0,1-.7.13.94.94,0,0,1-.52-.39,1,1,0,0,1-.15-.63.79.79,0,0,1,.39-.59,10.9,10.9,0,0,0,1.94-1.65,9.8,9.8,0,0,0,1.4-1.93A9,9,0,0,0,70.75,57a9.12,9.12,0,0,0-.25-2.11,8.73,8.73,0,0,0-.75-2,8.84,8.84,0,0,0-3-3.3.81.81,0,0,1-.4-.59A.94.94,0,0,1,67,48a.77.77,0,0,1,.69.13A10.43,10.43,0,0,1,71.33,52,10.67,10.67,0,0,1,72.53,57Z"/><path d="M77.23,60a.79.79,0,0,1-.66-.28,1,1,0,0,1,0-1.22.79.79,0,0,1,.66-.28h7.36a.79.79,0,0,1,.66.28,1,1,0,0,1,0,1.22.79.79,0,0,1-.66.28Z"/><path d="M95.49,64.91a.78.78,0,0,1,.39.59,1,1,0,0,1-.15.63,1,1,0,0,1-.52.39.79.79,0,0,1-.7-.13,11.56,11.56,0,0,1-2.3-2,11.93,11.93,0,0,1-1.63-2.3A10.85,10.85,0,0,1,89.27,57a10.66,10.66,0,0,1,1.2-5,10.47,10.47,0,0,1,3.62-3.91.79.79,0,0,1,.7-.13.93.93,0,0,1,.66,1,.81.81,0,0,1-.42.59,8.84,8.84,0,0,0-3,3.3,8.4,8.4,0,0,0-.74,2A9.43,9.43,0,0,0,91.05,57a9,9,0,0,0,1.12,4.34,10,10,0,0,0,1.39,1.93A10.56,10.56,0,0,0,95.49,64.91Z"/><path d="M99,68.37a.81.81,0,0,1-.68-.28,1,1,0,0,1,0-1.22.81.81,0,0,1,.68-.28h12.2a.79.79,0,0,1,.66.28,1,1,0,0,1,0,1.22.79.79,0,0,1-.66.28Z"/><path d="M121,57a10.78,10.78,0,0,1-1.32,5.15,12.14,12.14,0,0,1-1.64,2.3,11.58,11.58,0,0,1-2.3,2,.79.79,0,0,1-.7.13.94.94,0,0,1-.52-.39,1,1,0,0,1-.15-.63.79.79,0,0,1,.39-.59,10.9,10.9,0,0,0,1.94-1.65,9.8,9.8,0,0,0,1.4-1.93A9,9,0,0,0,119.25,57a9.12,9.12,0,0,0-.25-2.11,8.73,8.73,0,0,0-.75-2,8.84,8.84,0,0,0-3-3.3.81.81,0,0,1-.4-.59.94.94,0,0,1,.65-1,.77.77,0,0,1,.69.13A10.43,10.43,0,0,1,119.83,52,10.67,10.67,0,0,1,121,57Z"/></g></g></svg>